<mxfile host="app.diagrams.net" modified="2024-04-22T01:45:20.975Z" agent="Mozilla/5.0 (Windows NT 10.0; Win64; x64; rv:125.0) Gecko/20100101 Firefox/125.0" etag="o1Lliu6np6oto6ZQkpDm" version="24.2.7" type="device">
  <diagram id="C5RBs43oDa-KdzZeNtuy" name="Page-1">
    <mxGraphModel dx="2117" dy="626" grid="1" gridSize="10" guides="1" tooltips="1" connect="1" arrows="1" fold="1" page="1" pageScale="1" pageWidth="827" pageHeight="1169" math="0" shadow="0">
      <root>
        <mxCell id="WIyWlLk6GJQsqaUBKTNV-0" />
        <mxCell id="WIyWlLk6GJQsqaUBKTNV-1" parent="WIyWlLk6GJQsqaUBKTNV-0" />
        <mxCell id="-Jj-i-QA5d7zHLFxkBgY-0" value="Options" style="shape=trapezoid;perimeter=trapezoidPerimeter;whiteSpace=wrap;html=1;fixedSize=1;" parent="WIyWlLk6GJQsqaUBKTNV-1" vertex="1">
          <mxGeometry x="615" y="30" width="110" height="50" as="geometry" />
        </mxCell>
        <mxCell id="-Jj-i-QA5d7zHLFxkBgY-1" value="Trow Dice" style="rounded=0;whiteSpace=wrap;html=1;" parent="WIyWlLk6GJQsqaUBKTNV-1" vertex="1">
          <mxGeometry x="50" y="185" width="60" height="30" as="geometry" />
        </mxCell>
        <mxCell id="-Jj-i-QA5d7zHLFxkBgY-2" value="Buy Property" style="rounded=0;whiteSpace=wrap;html=1;" parent="WIyWlLk6GJQsqaUBKTNV-1" vertex="1">
          <mxGeometry x="380" y="565" width="90" height="40" as="geometry" />
        </mxCell>
        <mxCell id="-Jj-i-QA5d7zHLFxkBgY-3" value="&lt;div&gt;Auction a&lt;/div&gt;&lt;div&gt;Property&lt;br&gt;&lt;/div&gt;" style="rounded=0;whiteSpace=wrap;html=1;" parent="WIyWlLk6GJQsqaUBKTNV-1" vertex="1">
          <mxGeometry x="100" y="580" width="90" height="40" as="geometry" />
        </mxCell>
        <mxCell id="-Jj-i-QA5d7zHLFxkBgY-9" value="&lt;div&gt;Mortgage a&lt;/div&gt;&lt;div&gt;Property&lt;br&gt;&lt;/div&gt;" style="rounded=0;whiteSpace=wrap;html=1;" parent="WIyWlLk6GJQsqaUBKTNV-1" vertex="1">
          <mxGeometry x="200" y="580" width="90" height="40" as="geometry" />
        </mxCell>
        <mxCell id="-Jj-i-QA5d7zHLFxkBgY-10" value="&lt;div&gt;Stats of the&lt;/div&gt;&lt;div&gt;Match&lt;br&gt;&lt;/div&gt;" style="rounded=0;whiteSpace=wrap;html=1;" parent="WIyWlLk6GJQsqaUBKTNV-1" vertex="1">
          <mxGeometry x="70" y="350" width="90" height="40" as="geometry" />
        </mxCell>
        <mxCell id="-Jj-i-QA5d7zHLFxkBgY-11" value="Exit" style="rounded=0;whiteSpace=wrap;html=1;" parent="WIyWlLk6GJQsqaUBKTNV-1" vertex="1">
          <mxGeometry x="300" y="330" width="90" height="40" as="geometry" />
        </mxCell>
        <mxCell id="-Jj-i-QA5d7zHLFxkBgY-12" value="&lt;div&gt;Use a card&lt;/div&gt;&lt;div&gt;to break free&lt;br&gt;&lt;/div&gt;" style="rounded=0;whiteSpace=wrap;html=1;" parent="WIyWlLk6GJQsqaUBKTNV-1" vertex="1">
          <mxGeometry x="790" y="552.5" width="90" height="40" as="geometry" />
        </mxCell>
        <mxCell id="-Jj-i-QA5d7zHLFxkBgY-13" value="&lt;div&gt;Offer to Buy&lt;/div&gt;&lt;div&gt;a Rival Card&lt;br&gt;&lt;/div&gt;" style="rounded=0;whiteSpace=wrap;html=1;" parent="WIyWlLk6GJQsqaUBKTNV-1" vertex="1">
          <mxGeometry x="900" y="510" width="90" height="40" as="geometry" />
        </mxCell>
        <mxCell id="-Jj-i-QA5d7zHLFxkBgY-14" value="&lt;div&gt;Offer a&lt;br&gt;&lt;/div&gt;&lt;div&gt;Trade Request&lt;/div&gt;" style="rounded=0;whiteSpace=wrap;html=1;" parent="WIyWlLk6GJQsqaUBKTNV-1" vertex="1">
          <mxGeometry x="664" y="630" width="90" height="40" as="geometry" />
        </mxCell>
        <mxCell id="-Jj-i-QA5d7zHLFxkBgY-16" value="Skip this turn" style="rounded=0;whiteSpace=wrap;html=1;" parent="WIyWlLk6GJQsqaUBKTNV-1" vertex="1">
          <mxGeometry x="690" y="420" width="90" height="40" as="geometry" />
        </mxCell>
        <mxCell id="-Jj-i-QA5d7zHLFxkBgY-17" value="&lt;div&gt;Upgrade this&lt;/div&gt;&lt;div&gt;Property&lt;br&gt;&lt;/div&gt;" style="rounded=0;whiteSpace=wrap;html=1;" parent="WIyWlLk6GJQsqaUBKTNV-1" vertex="1">
          <mxGeometry x="494" y="680" width="90" height="40" as="geometry" />
        </mxCell>
        <mxCell id="-Jj-i-QA5d7zHLFxkBgY-20" value="&lt;div&gt;Has 1 or more&lt;/div&gt;&lt;div&gt;Properties&lt;br&gt;&lt;/div&gt;" style="rhombus;whiteSpace=wrap;html=1;" parent="WIyWlLk6GJQsqaUBKTNV-1" vertex="1">
          <mxGeometry x="146.25" y="420" width="97.5" height="80" as="geometry" />
        </mxCell>
        <mxCell id="-Jj-i-QA5d7zHLFxkBgY-36" value="&lt;div&gt;Has trown&lt;/div&gt;&lt;div&gt;Once?&lt;br&gt;&lt;/div&gt;" style="rhombus;whiteSpace=wrap;html=1;" parent="WIyWlLk6GJQsqaUBKTNV-1" vertex="1">
          <mxGeometry x="160" y="170" width="70" height="60" as="geometry" />
        </mxCell>
        <mxCell id="-Jj-i-QA5d7zHLFxkBgY-38" value="" style="endArrow=classic;html=1;rounded=0;exitX=0.5;exitY=1;exitDx=0;exitDy=0;entryX=0.5;entryY=0;entryDx=0;entryDy=0;" parent="WIyWlLk6GJQsqaUBKTNV-1" source="-Jj-i-QA5d7zHLFxkBgY-0" target="-Jj-i-QA5d7zHLFxkBgY-36" edge="1">
          <mxGeometry width="50" height="50" relative="1" as="geometry">
            <mxPoint x="400" y="190" as="sourcePoint" />
            <mxPoint x="450" y="140" as="targetPoint" />
            <Array as="points">
              <mxPoint x="670" y="120" />
              <mxPoint x="195" y="120" />
            </Array>
          </mxGeometry>
        </mxCell>
        <mxCell id="-Jj-i-QA5d7zHLFxkBgY-110" value="Options that are always active" style="edgeLabel;html=1;align=center;verticalAlign=middle;resizable=0;points=[];" parent="-Jj-i-QA5d7zHLFxkBgY-38" vertex="1" connectable="0">
          <mxGeometry x="-0.2334" y="-1" relative="1" as="geometry">
            <mxPoint as="offset" />
          </mxGeometry>
        </mxCell>
        <mxCell id="-Jj-i-QA5d7zHLFxkBgY-39" value="" style="endArrow=classic;html=1;rounded=0;exitX=0;exitY=0.5;exitDx=0;exitDy=0;entryX=1;entryY=0.5;entryDx=0;entryDy=0;" parent="WIyWlLk6GJQsqaUBKTNV-1" source="-Jj-i-QA5d7zHLFxkBgY-36" target="-Jj-i-QA5d7zHLFxkBgY-1" edge="1">
          <mxGeometry width="50" height="50" relative="1" as="geometry">
            <mxPoint x="160" y="290" as="sourcePoint" />
            <mxPoint x="210" y="240" as="targetPoint" />
          </mxGeometry>
        </mxCell>
        <mxCell id="-Jj-i-QA5d7zHLFxkBgY-111" value="No" style="edgeLabel;html=1;align=center;verticalAlign=middle;resizable=0;points=[];" parent="-Jj-i-QA5d7zHLFxkBgY-39" vertex="1" connectable="0">
          <mxGeometry x="0.1408" y="2" relative="1" as="geometry">
            <mxPoint x="14" y="-2" as="offset" />
          </mxGeometry>
        </mxCell>
        <mxCell id="-Jj-i-QA5d7zHLFxkBgY-41" value="" style="endArrow=classic;html=1;rounded=0;exitX=1;exitY=0.5;exitDx=0;exitDy=0;entryX=0.5;entryY=0;entryDx=0;entryDy=0;" parent="WIyWlLk6GJQsqaUBKTNV-1" source="-Jj-i-QA5d7zHLFxkBgY-36" target="-Jj-i-QA5d7zHLFxkBgY-11" edge="1">
          <mxGeometry width="50" height="50" relative="1" as="geometry">
            <mxPoint x="50" y="460" as="sourcePoint" />
            <mxPoint x="100" y="410" as="targetPoint" />
            <Array as="points">
              <mxPoint x="230" y="300" />
              <mxPoint x="345" y="300" />
            </Array>
          </mxGeometry>
        </mxCell>
        <mxCell id="-Jj-i-QA5d7zHLFxkBgY-42" value="" style="endArrow=classic;html=1;rounded=0;entryX=0.5;entryY=0;entryDx=0;entryDy=0;" parent="WIyWlLk6GJQsqaUBKTNV-1" target="-Jj-i-QA5d7zHLFxkBgY-10" edge="1">
          <mxGeometry width="50" height="50" relative="1" as="geometry">
            <mxPoint x="230" y="200" as="sourcePoint" />
            <mxPoint x="70" y="350" as="targetPoint" />
            <Array as="points">
              <mxPoint x="230" y="300" />
              <mxPoint x="115" y="300" />
            </Array>
          </mxGeometry>
        </mxCell>
        <mxCell id="-Jj-i-QA5d7zHLFxkBgY-43" value="" style="endArrow=classic;html=1;rounded=0;exitX=0.5;exitY=1;exitDx=0;exitDy=0;" parent="WIyWlLk6GJQsqaUBKTNV-1" source="-Jj-i-QA5d7zHLFxkBgY-1" edge="1">
          <mxGeometry width="50" height="50" relative="1" as="geometry">
            <mxPoint x="100" y="340" as="sourcePoint" />
            <mxPoint x="230" y="240" as="targetPoint" />
            <Array as="points">
              <mxPoint x="80" y="240" />
            </Array>
          </mxGeometry>
        </mxCell>
        <mxCell id="-Jj-i-QA5d7zHLFxkBgY-45" value="" style="endArrow=classic;html=1;rounded=0;entryX=0.5;entryY=0;entryDx=0;entryDy=0;" parent="WIyWlLk6GJQsqaUBKTNV-1" target="-Jj-i-QA5d7zHLFxkBgY-20" edge="1">
          <mxGeometry width="50" height="50" relative="1" as="geometry">
            <mxPoint x="230" y="200" as="sourcePoint" />
            <mxPoint x="180" y="400" as="targetPoint" />
            <Array as="points">
              <mxPoint x="230" y="300" />
              <mxPoint x="195" y="300" />
            </Array>
          </mxGeometry>
        </mxCell>
        <mxCell id="-Jj-i-QA5d7zHLFxkBgY-112" value="Yes" style="edgeLabel;html=1;align=center;verticalAlign=middle;resizable=0;points=[];" parent="-Jj-i-QA5d7zHLFxkBgY-45" vertex="1" connectable="0">
          <mxGeometry x="-0.8886" y="2" relative="1" as="geometry">
            <mxPoint x="-2" as="offset" />
          </mxGeometry>
        </mxCell>
        <mxCell id="-Jj-i-QA5d7zHLFxkBgY-46" value="" style="endArrow=classic;html=1;rounded=0;exitX=0.5;exitY=1;exitDx=0;exitDy=0;entryX=0.5;entryY=0;entryDx=0;entryDy=0;" parent="WIyWlLk6GJQsqaUBKTNV-1" source="-Jj-i-QA5d7zHLFxkBgY-20" target="-Jj-i-QA5d7zHLFxkBgY-3" edge="1">
          <mxGeometry width="50" height="50" relative="1" as="geometry">
            <mxPoint x="50" y="550" as="sourcePoint" />
            <mxPoint x="100" y="500" as="targetPoint" />
            <Array as="points">
              <mxPoint x="195.5" y="530" />
              <mxPoint x="145.5" y="530" />
            </Array>
          </mxGeometry>
        </mxCell>
        <mxCell id="-Jj-i-QA5d7zHLFxkBgY-47" value="" style="endArrow=classic;html=1;rounded=0;exitX=0.5;exitY=1;exitDx=0;exitDy=0;entryX=0.5;entryY=0;entryDx=0;entryDy=0;" parent="WIyWlLk6GJQsqaUBKTNV-1" source="-Jj-i-QA5d7zHLFxkBgY-20" target="-Jj-i-QA5d7zHLFxkBgY-9" edge="1">
          <mxGeometry width="50" height="50" relative="1" as="geometry">
            <mxPoint x="240" y="650" as="sourcePoint" />
            <mxPoint x="290" y="600" as="targetPoint" />
            <Array as="points">
              <mxPoint x="195.5" y="530" />
              <mxPoint x="245.5" y="530" />
            </Array>
          </mxGeometry>
        </mxCell>
        <mxCell id="-Jj-i-QA5d7zHLFxkBgY-48" value="" style="endArrow=none;dashed=1;html=1;dashPattern=1 3;strokeWidth=2;rounded=0;entryX=0.5;entryY=0;entryDx=0;entryDy=0;" parent="WIyWlLk6GJQsqaUBKTNV-1" target="-Jj-i-QA5d7zHLFxkBgY-54" edge="1">
          <mxGeometry width="50" height="50" relative="1" as="geometry">
            <mxPoint x="670" y="120" as="sourcePoint" />
            <mxPoint x="620" y="210" as="targetPoint" />
            <Array as="points">
              <mxPoint x="670" y="120" />
            </Array>
          </mxGeometry>
        </mxCell>
        <mxCell id="-Jj-i-QA5d7zHLFxkBgY-54" value="&lt;div&gt;Options&lt;/div&gt;&lt;div&gt;depending on the&lt;/div&gt;&lt;div&gt;Square landed on&lt;br&gt;&lt;/div&gt;" style="shape=trapezoid;perimeter=trapezoidPerimeter;whiteSpace=wrap;html=1;fixedSize=1;" parent="WIyWlLk6GJQsqaUBKTNV-1" vertex="1">
          <mxGeometry x="610" y="210" width="120" height="60" as="geometry" />
        </mxCell>
        <mxCell id="-Jj-i-QA5d7zHLFxkBgY-56" value="" style="endArrow=classic;html=1;rounded=0;exitX=0.5;exitY=1;exitDx=0;exitDy=0;entryX=0.5;entryY=0;entryDx=0;entryDy=0;" parent="WIyWlLk6GJQsqaUBKTNV-1" source="-Jj-i-QA5d7zHLFxkBgY-54" target="-Jj-i-QA5d7zHLFxkBgY-71" edge="1">
          <mxGeometry width="50" height="50" relative="1" as="geometry">
            <mxPoint x="500" y="330" as="sourcePoint" />
            <mxPoint x="534" y="330" as="targetPoint" />
            <Array as="points">
              <mxPoint x="670" y="300" />
              <mxPoint x="534" y="300" />
            </Array>
          </mxGeometry>
        </mxCell>
        <mxCell id="-Jj-i-QA5d7zHLFxkBgY-57" value="" style="endArrow=classic;html=1;rounded=0;exitX=0.5;exitY=1;exitDx=0;exitDy=0;entryX=0.5;entryY=0;entryDx=0;entryDy=0;" parent="WIyWlLk6GJQsqaUBKTNV-1" source="-Jj-i-QA5d7zHLFxkBgY-54" target="-Jj-i-QA5d7zHLFxkBgY-87" edge="1">
          <mxGeometry width="50" height="50" relative="1" as="geometry">
            <mxPoint x="670" y="380" as="sourcePoint" />
            <mxPoint x="888" y="330" as="targetPoint" />
            <Array as="points">
              <mxPoint x="670" y="300" />
              <mxPoint x="890" y="300" />
            </Array>
          </mxGeometry>
        </mxCell>
        <mxCell id="-Jj-i-QA5d7zHLFxkBgY-61" value="" style="endArrow=classic;html=1;rounded=0;entryX=0.5;entryY=0;entryDx=0;entryDy=0;exitX=0.5;exitY=1;exitDx=0;exitDy=0;" parent="WIyWlLk6GJQsqaUBKTNV-1" source="-Jj-i-QA5d7zHLFxkBgY-87" target="-Jj-i-QA5d7zHLFxkBgY-12" edge="1">
          <mxGeometry width="50" height="50" relative="1" as="geometry">
            <mxPoint x="888" y="400" as="sourcePoint" />
            <mxPoint x="870" y="440" as="targetPoint" />
            <Array as="points">
              <mxPoint x="890" y="440" />
              <mxPoint x="860" y="440" />
              <mxPoint x="835" y="440" />
            </Array>
          </mxGeometry>
        </mxCell>
        <mxCell id="-Jj-i-QA5d7zHLFxkBgY-62" value="" style="endArrow=classic;html=1;rounded=0;exitX=0.5;exitY=1;exitDx=0;exitDy=0;entryX=0.5;entryY=0;entryDx=0;entryDy=0;" parent="WIyWlLk6GJQsqaUBKTNV-1" source="-Jj-i-QA5d7zHLFxkBgY-87" target="-Jj-i-QA5d7zHLFxkBgY-13" edge="1">
          <mxGeometry width="50" height="50" relative="1" as="geometry">
            <mxPoint x="888" y="400" as="sourcePoint" />
            <mxPoint x="1000" y="460" as="targetPoint" />
            <Array as="points">
              <mxPoint x="890" y="440" />
              <mxPoint x="945" y="440" />
            </Array>
          </mxGeometry>
        </mxCell>
        <mxCell id="-Jj-i-QA5d7zHLFxkBgY-63" value="" style="endArrow=classic;html=1;rounded=0;exitX=0.5;exitY=1;exitDx=0;exitDy=0;entryX=0.5;entryY=0;entryDx=0;entryDy=0;" parent="WIyWlLk6GJQsqaUBKTNV-1" target="lAvZeCCtpbjUJMKtxF_9-19" edge="1">
          <mxGeometry width="50" height="50" relative="1" as="geometry">
            <mxPoint x="670" y="270" as="sourcePoint" />
            <mxPoint x="735" y="420" as="targetPoint" />
            <Array as="points">
              <mxPoint x="670" y="300" />
              <mxPoint x="735" y="300" />
            </Array>
          </mxGeometry>
        </mxCell>
        <mxCell id="-Jj-i-QA5d7zHLFxkBgY-85" value="Rest Square" style="edgeLabel;html=1;align=center;verticalAlign=middle;resizable=0;points=[];" parent="-Jj-i-QA5d7zHLFxkBgY-63" vertex="1" connectable="0">
          <mxGeometry x="0.4462" relative="1" as="geometry">
            <mxPoint y="-4" as="offset" />
          </mxGeometry>
        </mxCell>
        <mxCell id="-Jj-i-QA5d7zHLFxkBgY-64" value="&lt;div&gt;Options depending&lt;/div&gt;&lt;div&gt;on the Rival Status&lt;br&gt;&lt;/div&gt;" style="shape=trapezoid;perimeter=trapezoidPerimeter;whiteSpace=wrap;html=1;fixedSize=1;" parent="WIyWlLk6GJQsqaUBKTNV-1" vertex="1">
          <mxGeometry x="1080" y="210" width="120" height="60" as="geometry" />
        </mxCell>
        <mxCell id="-Jj-i-QA5d7zHLFxkBgY-65" value="" style="endArrow=classic;html=1;rounded=0;entryX=1;entryY=0.5;entryDx=0;entryDy=0;exitX=0.5;exitY=1;exitDx=0;exitDy=0;" parent="WIyWlLk6GJQsqaUBKTNV-1" source="-Jj-i-QA5d7zHLFxkBgY-87" target="-Jj-i-QA5d7zHLFxkBgY-16" edge="1">
          <mxGeometry width="50" height="50" relative="1" as="geometry">
            <mxPoint x="888" y="400" as="sourcePoint" />
            <mxPoint x="850" y="410" as="targetPoint" />
            <Array as="points">
              <mxPoint x="890" y="440" />
              <mxPoint x="820" y="440" />
            </Array>
          </mxGeometry>
        </mxCell>
        <mxCell id="-Jj-i-QA5d7zHLFxkBgY-66" value="" style="endArrow=none;dashed=1;html=1;rounded=0;entryX=0.5;entryY=0;entryDx=0;entryDy=0;" parent="WIyWlLk6GJQsqaUBKTNV-1" target="-Jj-i-QA5d7zHLFxkBgY-64" edge="1">
          <mxGeometry width="50" height="50" relative="1" as="geometry">
            <mxPoint x="670" y="120" as="sourcePoint" />
            <mxPoint x="960" y="90" as="targetPoint" />
            <Array as="points">
              <mxPoint x="1140" y="120" />
            </Array>
          </mxGeometry>
        </mxCell>
        <mxCell id="-Jj-i-QA5d7zHLFxkBgY-70" value="&lt;div&gt;Has a&lt;/div&gt;&lt;div&gt;Owner?&lt;br&gt;&lt;/div&gt;" style="rhombus;whiteSpace=wrap;html=1;" parent="WIyWlLk6GJQsqaUBKTNV-1" vertex="1">
          <mxGeometry x="494" y="430" width="80" height="80" as="geometry" />
        </mxCell>
        <mxCell id="-Jj-i-QA5d7zHLFxkBgY-71" value="&lt;div&gt;Land on a&lt;/div&gt;&lt;div&gt;Property&lt;br&gt;&lt;/div&gt;" style="shape=parallelogram;perimeter=parallelogramPerimeter;whiteSpace=wrap;html=1;fixedSize=1;" parent="WIyWlLk6GJQsqaUBKTNV-1" vertex="1">
          <mxGeometry x="484" y="350" width="100" height="40" as="geometry" />
        </mxCell>
        <mxCell id="-Jj-i-QA5d7zHLFxkBgY-72" value="" style="endArrow=classic;html=1;rounded=0;exitX=0.5;exitY=1;exitDx=0;exitDy=0;entryX=0.5;entryY=0;entryDx=0;entryDy=0;" parent="WIyWlLk6GJQsqaUBKTNV-1" source="-Jj-i-QA5d7zHLFxkBgY-71" target="-Jj-i-QA5d7zHLFxkBgY-70" edge="1">
          <mxGeometry width="50" height="50" relative="1" as="geometry">
            <mxPoint x="420" y="490" as="sourcePoint" />
            <mxPoint x="470" y="440" as="targetPoint" />
          </mxGeometry>
        </mxCell>
        <mxCell id="-Jj-i-QA5d7zHLFxkBgY-73" value="&lt;div&gt;Im the&lt;/div&gt;&lt;div&gt;Owner&lt;br&gt;&lt;/div&gt;" style="rhombus;whiteSpace=wrap;html=1;" parent="WIyWlLk6GJQsqaUBKTNV-1" vertex="1">
          <mxGeometry x="584" y="500" width="80" height="80" as="geometry" />
        </mxCell>
        <mxCell id="-Jj-i-QA5d7zHLFxkBgY-74" value="" style="endArrow=classic;html=1;rounded=0;exitX=0;exitY=0.5;exitDx=0;exitDy=0;entryX=0.5;entryY=0;entryDx=0;entryDy=0;" parent="WIyWlLk6GJQsqaUBKTNV-1" source="-Jj-i-QA5d7zHLFxkBgY-70" target="-Jj-i-QA5d7zHLFxkBgY-2" edge="1">
          <mxGeometry width="50" height="50" relative="1" as="geometry">
            <mxPoint x="400" y="550" as="sourcePoint" />
            <mxPoint x="450" y="500" as="targetPoint" />
            <Array as="points">
              <mxPoint x="425" y="470" />
            </Array>
          </mxGeometry>
        </mxCell>
        <mxCell id="-Jj-i-QA5d7zHLFxkBgY-77" value="No" style="edgeLabel;html=1;align=center;verticalAlign=middle;resizable=0;points=[];" parent="-Jj-i-QA5d7zHLFxkBgY-74" vertex="1" connectable="0">
          <mxGeometry x="-0.5732" y="4" relative="1" as="geometry">
            <mxPoint y="-4" as="offset" />
          </mxGeometry>
        </mxCell>
        <mxCell id="-Jj-i-QA5d7zHLFxkBgY-75" value="" style="endArrow=classic;html=1;rounded=0;exitX=1;exitY=0.5;exitDx=0;exitDy=0;entryX=0.5;entryY=0;entryDx=0;entryDy=0;" parent="WIyWlLk6GJQsqaUBKTNV-1" source="-Jj-i-QA5d7zHLFxkBgY-70" target="-Jj-i-QA5d7zHLFxkBgY-73" edge="1">
          <mxGeometry width="50" height="50" relative="1" as="geometry">
            <mxPoint x="610" y="520" as="sourcePoint" />
            <mxPoint x="660" y="470" as="targetPoint" />
            <Array as="points">
              <mxPoint x="624" y="470" />
            </Array>
          </mxGeometry>
        </mxCell>
        <mxCell id="-Jj-i-QA5d7zHLFxkBgY-80" value="Yes" style="edgeLabel;html=1;align=center;verticalAlign=middle;resizable=0;points=[];" parent="-Jj-i-QA5d7zHLFxkBgY-75" vertex="1" connectable="0">
          <mxGeometry x="-0.375" y="1" relative="1" as="geometry">
            <mxPoint as="offset" />
          </mxGeometry>
        </mxCell>
        <mxCell id="-Jj-i-QA5d7zHLFxkBgY-81" value="" style="endArrow=classic;html=1;rounded=0;exitX=0;exitY=0.5;exitDx=0;exitDy=0;entryX=0.5;entryY=0;entryDx=0;entryDy=0;" parent="WIyWlLk6GJQsqaUBKTNV-1" source="-Jj-i-QA5d7zHLFxkBgY-73" target="-Jj-i-QA5d7zHLFxkBgY-17" edge="1">
          <mxGeometry width="50" height="50" relative="1" as="geometry">
            <mxPoint x="520" y="620" as="sourcePoint" />
            <mxPoint x="570" y="570" as="targetPoint" />
            <Array as="points">
              <mxPoint x="540" y="540" />
            </Array>
          </mxGeometry>
        </mxCell>
        <mxCell id="-Jj-i-QA5d7zHLFxkBgY-84" value="Yes" style="edgeLabel;html=1;align=center;verticalAlign=middle;resizable=0;points=[];" parent="-Jj-i-QA5d7zHLFxkBgY-81" vertex="1" connectable="0">
          <mxGeometry x="-0.6567" y="5" relative="1" as="geometry">
            <mxPoint x="17" y="-5" as="offset" />
          </mxGeometry>
        </mxCell>
        <mxCell id="-Jj-i-QA5d7zHLFxkBgY-82" value="" style="endArrow=classic;html=1;rounded=0;exitX=1;exitY=0.5;exitDx=0;exitDy=0;entryX=0.5;entryY=0;entryDx=0;entryDy=0;" parent="WIyWlLk6GJQsqaUBKTNV-1" source="-Jj-i-QA5d7zHLFxkBgY-73" target="-Jj-i-QA5d7zHLFxkBgY-14" edge="1">
          <mxGeometry width="50" height="50" relative="1" as="geometry">
            <mxPoint x="590" y="660" as="sourcePoint" />
            <mxPoint x="640" y="610" as="targetPoint" />
            <Array as="points">
              <mxPoint x="710" y="540" />
            </Array>
          </mxGeometry>
        </mxCell>
        <mxCell id="-Jj-i-QA5d7zHLFxkBgY-83" value="No" style="edgeLabel;html=1;align=center;verticalAlign=middle;resizable=0;points=[];" parent="-Jj-i-QA5d7zHLFxkBgY-82" vertex="1" connectable="0">
          <mxGeometry x="-0.6912" y="-2" relative="1" as="geometry">
            <mxPoint as="offset" />
          </mxGeometry>
        </mxCell>
        <mxCell id="-Jj-i-QA5d7zHLFxkBgY-87" value="&lt;div&gt;Land on&lt;/div&gt;&lt;div&gt;Jail&lt;br&gt;&lt;/div&gt;" style="shape=parallelogram;perimeter=parallelogramPerimeter;whiteSpace=wrap;html=1;fixedSize=1;" parent="WIyWlLk6GJQsqaUBKTNV-1" vertex="1">
          <mxGeometry x="840" y="340" width="100" height="40" as="geometry" />
        </mxCell>
        <mxCell id="-Jj-i-QA5d7zHLFxkBgY-91" value="&lt;div&gt;Rival Interested&lt;/div&gt;&lt;div&gt;In our Property&lt;br&gt;&lt;/div&gt;" style="shape=parallelogram;perimeter=parallelogramPerimeter;whiteSpace=wrap;html=1;fixedSize=1;" parent="WIyWlLk6GJQsqaUBKTNV-1" vertex="1">
          <mxGeometry x="1010" y="330" width="120" height="40" as="geometry" />
        </mxCell>
        <mxCell id="-Jj-i-QA5d7zHLFxkBgY-92" value="&lt;div&gt;Rival wants our&lt;/div&gt;&lt;div&gt;out of jail card&lt;br&gt;&lt;/div&gt;" style="shape=parallelogram;perimeter=parallelogramPerimeter;whiteSpace=wrap;html=1;fixedSize=1;" parent="WIyWlLk6GJQsqaUBKTNV-1" vertex="1">
          <mxGeometry x="1140" y="330" width="120" height="40" as="geometry" />
        </mxCell>
        <mxCell id="-Jj-i-QA5d7zHLFxkBgY-94" value="&lt;div&gt;Accept&lt;/div&gt;&lt;div&gt;Trade Request&lt;br&gt;&lt;/div&gt;" style="rounded=0;whiteSpace=wrap;html=1;" parent="WIyWlLk6GJQsqaUBKTNV-1" vertex="1">
          <mxGeometry x="1025" y="440" width="90" height="40" as="geometry" />
        </mxCell>
        <mxCell id="-Jj-i-QA5d7zHLFxkBgY-95" value="&lt;div&gt;Decline&lt;/div&gt;&lt;div&gt;Trade Request&lt;br&gt;&lt;/div&gt;" style="rounded=0;whiteSpace=wrap;html=1;" parent="WIyWlLk6GJQsqaUBKTNV-1" vertex="1">
          <mxGeometry x="1151" y="440" width="90" height="40" as="geometry" />
        </mxCell>
        <mxCell id="-Jj-i-QA5d7zHLFxkBgY-96" value="" style="endArrow=classic;html=1;rounded=0;exitX=0.5;exitY=1;exitDx=0;exitDy=0;entryX=0.5;entryY=0;entryDx=0;entryDy=0;" parent="WIyWlLk6GJQsqaUBKTNV-1" source="-Jj-i-QA5d7zHLFxkBgY-64" target="-Jj-i-QA5d7zHLFxkBgY-91" edge="1">
          <mxGeometry width="50" height="50" relative="1" as="geometry">
            <mxPoint x="1090" y="340" as="sourcePoint" />
            <mxPoint x="1140" y="290" as="targetPoint" />
            <Array as="points">
              <mxPoint x="1140" y="300" />
              <mxPoint x="1070" y="300" />
            </Array>
          </mxGeometry>
        </mxCell>
        <mxCell id="-Jj-i-QA5d7zHLFxkBgY-97" value="" style="endArrow=classic;html=1;rounded=0;exitX=0.5;exitY=1;exitDx=0;exitDy=0;entryX=0.5;entryY=0;entryDx=0;entryDy=0;" parent="WIyWlLk6GJQsqaUBKTNV-1" source="-Jj-i-QA5d7zHLFxkBgY-64" target="-Jj-i-QA5d7zHLFxkBgY-92" edge="1">
          <mxGeometry width="50" height="50" relative="1" as="geometry">
            <mxPoint x="1140" y="270" as="sourcePoint" />
            <mxPoint x="1340" y="350" as="targetPoint" />
            <Array as="points">
              <mxPoint x="1140" y="300" />
              <mxPoint x="1200" y="300" />
            </Array>
          </mxGeometry>
        </mxCell>
        <mxCell id="-Jj-i-QA5d7zHLFxkBgY-98" value="" style="endArrow=classic;html=1;rounded=0;exitX=0.5;exitY=1;exitDx=0;exitDy=0;entryX=0.5;entryY=0;entryDx=0;entryDy=0;" parent="WIyWlLk6GJQsqaUBKTNV-1" source="-Jj-i-QA5d7zHLFxkBgY-91" target="-Jj-i-QA5d7zHLFxkBgY-94" edge="1">
          <mxGeometry width="50" height="50" relative="1" as="geometry">
            <mxPoint x="1080" y="450" as="sourcePoint" />
            <mxPoint x="1130" y="400" as="targetPoint" />
          </mxGeometry>
        </mxCell>
        <mxCell id="-Jj-i-QA5d7zHLFxkBgY-99" value="" style="endArrow=classic;html=1;rounded=0;exitX=0.5;exitY=1;exitDx=0;exitDy=0;entryX=0.552;entryY=-0.007;entryDx=0;entryDy=0;entryPerimeter=0;" parent="WIyWlLk6GJQsqaUBKTNV-1" source="-Jj-i-QA5d7zHLFxkBgY-92" target="-Jj-i-QA5d7zHLFxkBgY-95" edge="1">
          <mxGeometry width="50" height="50" relative="1" as="geometry">
            <mxPoint x="1170" y="440" as="sourcePoint" />
            <mxPoint x="1220" y="390" as="targetPoint" />
          </mxGeometry>
        </mxCell>
        <mxCell id="-Jj-i-QA5d7zHLFxkBgY-100" value="" style="endArrow=classic;html=1;rounded=0;exitX=0.5;exitY=1;exitDx=0;exitDy=0;" parent="WIyWlLk6GJQsqaUBKTNV-1" source="-Jj-i-QA5d7zHLFxkBgY-91" edge="1">
          <mxGeometry width="50" height="50" relative="1" as="geometry">
            <mxPoint x="1090" y="560" as="sourcePoint" />
            <mxPoint x="1200" y="440" as="targetPoint" />
            <Array as="points">
              <mxPoint x="1070" y="400" />
              <mxPoint x="1200" y="400" />
            </Array>
          </mxGeometry>
        </mxCell>
        <mxCell id="-Jj-i-QA5d7zHLFxkBgY-101" value="Save?" style="rhombus;whiteSpace=wrap;html=1;" parent="WIyWlLk6GJQsqaUBKTNV-1" vertex="1">
          <mxGeometry x="315" y="390" width="60" height="60" as="geometry" />
        </mxCell>
        <mxCell id="-Jj-i-QA5d7zHLFxkBgY-102" value="" style="endArrow=classic;html=1;rounded=0;exitX=0.5;exitY=1;exitDx=0;exitDy=0;entryX=0.5;entryY=0;entryDx=0;entryDy=0;" parent="WIyWlLk6GJQsqaUBKTNV-1" source="-Jj-i-QA5d7zHLFxkBgY-11" target="-Jj-i-QA5d7zHLFxkBgY-101" edge="1">
          <mxGeometry width="50" height="50" relative="1" as="geometry">
            <mxPoint x="320" y="540" as="sourcePoint" />
            <mxPoint x="370" y="490" as="targetPoint" />
          </mxGeometry>
        </mxCell>
        <mxCell id="-Jj-i-QA5d7zHLFxkBgY-103" value="&lt;div&gt;Choose a&lt;/div&gt;&lt;div&gt;save file&lt;br&gt;&lt;/div&gt;" style="rounded=0;whiteSpace=wrap;html=1;" parent="WIyWlLk6GJQsqaUBKTNV-1" vertex="1">
          <mxGeometry x="250" y="460" width="80" height="40" as="geometry" />
        </mxCell>
        <mxCell id="-Jj-i-QA5d7zHLFxkBgY-104" value="Menu" style="rounded=1;whiteSpace=wrap;html=1;" parent="WIyWlLk6GJQsqaUBKTNV-1" vertex="1">
          <mxGeometry x="315" y="527.5" width="55" height="25" as="geometry" />
        </mxCell>
        <mxCell id="-Jj-i-QA5d7zHLFxkBgY-105" value="" style="endArrow=classic;html=1;rounded=0;exitX=0;exitY=0.5;exitDx=0;exitDy=0;entryX=0.5;entryY=0;entryDx=0;entryDy=0;" parent="WIyWlLk6GJQsqaUBKTNV-1" source="-Jj-i-QA5d7zHLFxkBgY-101" target="-Jj-i-QA5d7zHLFxkBgY-103" edge="1">
          <mxGeometry width="50" height="50" relative="1" as="geometry">
            <mxPoint x="260" y="460" as="sourcePoint" />
            <mxPoint x="310" y="410" as="targetPoint" />
            <Array as="points">
              <mxPoint x="290" y="420" />
            </Array>
          </mxGeometry>
        </mxCell>
        <mxCell id="-Jj-i-QA5d7zHLFxkBgY-106" value="Yes" style="edgeLabel;html=1;align=center;verticalAlign=middle;resizable=0;points=[];" parent="-Jj-i-QA5d7zHLFxkBgY-105" vertex="1" connectable="0">
          <mxGeometry x="-0.6552" y="-2" relative="1" as="geometry">
            <mxPoint x="-4" y="2" as="offset" />
          </mxGeometry>
        </mxCell>
        <mxCell id="-Jj-i-QA5d7zHLFxkBgY-107" value="" style="endArrow=classic;html=1;rounded=0;exitX=1;exitY=0.5;exitDx=0;exitDy=0;entryX=1;entryY=0.5;entryDx=0;entryDy=0;" parent="WIyWlLk6GJQsqaUBKTNV-1" source="-Jj-i-QA5d7zHLFxkBgY-101" target="-Jj-i-QA5d7zHLFxkBgY-104" edge="1">
          <mxGeometry width="50" height="50" relative="1" as="geometry">
            <mxPoint x="340" y="510" as="sourcePoint" />
            <mxPoint x="390" y="460" as="targetPoint" />
            <Array as="points">
              <mxPoint x="400" y="420" />
              <mxPoint x="400" y="540" />
            </Array>
          </mxGeometry>
        </mxCell>
        <mxCell id="-Jj-i-QA5d7zHLFxkBgY-109" value="No" style="edgeLabel;html=1;align=center;verticalAlign=middle;resizable=0;points=[];" parent="-Jj-i-QA5d7zHLFxkBgY-107" vertex="1" connectable="0">
          <mxGeometry x="-0.8049" y="-2" relative="1" as="geometry">
            <mxPoint x="-2" y="-2" as="offset" />
          </mxGeometry>
        </mxCell>
        <mxCell id="-Jj-i-QA5d7zHLFxkBgY-108" value="" style="endArrow=classic;html=1;rounded=0;exitX=0.5;exitY=1;exitDx=0;exitDy=0;entryX=0;entryY=0.5;entryDx=0;entryDy=0;" parent="WIyWlLk6GJQsqaUBKTNV-1" source="-Jj-i-QA5d7zHLFxkBgY-103" target="-Jj-i-QA5d7zHLFxkBgY-104" edge="1">
          <mxGeometry width="50" height="50" relative="1" as="geometry">
            <mxPoint x="260" y="560" as="sourcePoint" />
            <mxPoint x="310" y="510" as="targetPoint" />
            <Array as="points">
              <mxPoint x="290" y="540" />
            </Array>
          </mxGeometry>
        </mxCell>
        <mxCell id="-Jj-i-QA5d7zHLFxkBgY-113" value="Finish Turn" style="rounded=1;whiteSpace=wrap;html=1;" parent="WIyWlLk6GJQsqaUBKTNV-1" vertex="1">
          <mxGeometry x="180" y="35" width="100" height="40" as="geometry" />
        </mxCell>
        <mxCell id="-Jj-i-QA5d7zHLFxkBgY-114" value="" style="endArrow=classic;html=1;rounded=0;exitX=0;exitY=0.5;exitDx=0;exitDy=0;entryX=1;entryY=0.5;entryDx=0;entryDy=0;" parent="WIyWlLk6GJQsqaUBKTNV-1" source="-Jj-i-QA5d7zHLFxkBgY-0" target="-Jj-i-QA5d7zHLFxkBgY-113" edge="1">
          <mxGeometry width="50" height="50" relative="1" as="geometry">
            <mxPoint x="540" y="120" as="sourcePoint" />
            <mxPoint x="590" y="70" as="targetPoint" />
          </mxGeometry>
        </mxCell>
        <mxCell id="-Jj-i-QA5d7zHLFxkBgY-115" value="&lt;div&gt;Always aviable after ending an Acction&amp;nbsp;&lt;/div&gt;&lt;div&gt;or Throwing the Dice once&lt;/div&gt;" style="edgeLabel;html=1;align=center;verticalAlign=middle;resizable=0;points=[];" parent="-Jj-i-QA5d7zHLFxkBgY-114" vertex="1" connectable="0">
          <mxGeometry x="0.4305" y="1" relative="1" as="geometry">
            <mxPoint x="72" y="-16" as="offset" />
          </mxGeometry>
        </mxCell>
        <mxCell id="lAvZeCCtpbjUJMKtxF_9-1" value="&lt;div&gt;Upgrade&lt;/div&gt;&lt;div&gt;a Property&lt;br&gt;&lt;/div&gt;" style="rounded=0;whiteSpace=wrap;html=1;" parent="WIyWlLk6GJQsqaUBKTNV-1" vertex="1">
          <mxGeometry x="-17.5" y="720" width="90" height="40" as="geometry" />
        </mxCell>
        <mxCell id="lAvZeCCtpbjUJMKtxF_9-2" value="" style="endArrow=classic;html=1;rounded=0;exitX=0.5;exitY=1;exitDx=0;exitDy=0;entryX=0.5;entryY=0;entryDx=0;entryDy=0;" parent="WIyWlLk6GJQsqaUBKTNV-1" source="-Jj-i-QA5d7zHLFxkBgY-10" target="lAvZeCCtpbjUJMKtxF_9-11" edge="1">
          <mxGeometry width="50" height="50" relative="1" as="geometry">
            <mxPoint x="60" y="510" as="sourcePoint" />
            <mxPoint x="110" y="460" as="targetPoint" />
            <Array as="points">
              <mxPoint x="115" y="530" />
              <mxPoint x="28" y="530" />
            </Array>
          </mxGeometry>
        </mxCell>
        <mxCell id="lAvZeCCtpbjUJMKtxF_9-3" value="" style="endArrow=classic;html=1;rounded=0;exitX=0.5;exitY=1;exitDx=0;exitDy=0;entryX=0.5;entryY=0;entryDx=0;entryDy=0;" parent="WIyWlLk6GJQsqaUBKTNV-1" source="-Jj-i-QA5d7zHLFxkBgY-20" target="lAvZeCCtpbjUJMKtxF_9-11" edge="1">
          <mxGeometry width="50" height="50" relative="1" as="geometry">
            <mxPoint x="30" y="620" as="sourcePoint" />
            <mxPoint x="80" y="570" as="targetPoint" />
            <Array as="points">
              <mxPoint x="195" y="530" />
              <mxPoint x="28" y="530" />
            </Array>
          </mxGeometry>
        </mxCell>
        <mxCell id="lAvZeCCtpbjUJMKtxF_9-4" value="&lt;div&gt;Owns 1&lt;/div&gt;&lt;div&gt;Upgrade&lt;br&gt;&lt;/div&gt;" style="rhombus;whiteSpace=wrap;html=1;" parent="WIyWlLk6GJQsqaUBKTNV-1" vertex="1">
          <mxGeometry x="90" y="710" width="80" height="80" as="geometry" />
        </mxCell>
        <mxCell id="lAvZeCCtpbjUJMKtxF_9-5" value="Sell an Upgrade" style="rounded=0;whiteSpace=wrap;html=1;" parent="WIyWlLk6GJQsqaUBKTNV-1" vertex="1">
          <mxGeometry x="200" y="730" width="90" height="40" as="geometry" />
        </mxCell>
        <mxCell id="lAvZeCCtpbjUJMKtxF_9-10" value="" style="endArrow=classic;html=1;rounded=0;exitX=0.5;exitY=1;exitDx=0;exitDy=0;entryX=0.5;entryY=0;entryDx=0;entryDy=0;" parent="WIyWlLk6GJQsqaUBKTNV-1" source="lAvZeCCtpbjUJMKtxF_9-11" target="lAvZeCCtpbjUJMKtxF_9-4" edge="1">
          <mxGeometry width="50" height="50" relative="1" as="geometry">
            <mxPoint x="150" y="690" as="sourcePoint" />
            <mxPoint x="150" y="710" as="targetPoint" />
            <Array as="points">
              <mxPoint x="130" y="690" />
            </Array>
          </mxGeometry>
        </mxCell>
        <mxCell id="lAvZeCCtpbjUJMKtxF_9-12" value="" style="edgeStyle=orthogonalEdgeStyle;rounded=0;orthogonalLoop=1;jettySize=auto;html=1;" parent="WIyWlLk6GJQsqaUBKTNV-1" source="lAvZeCCtpbjUJMKtxF_9-11" target="lAvZeCCtpbjUJMKtxF_9-1" edge="1">
          <mxGeometry relative="1" as="geometry" />
        </mxCell>
        <mxCell id="lAvZeCCtpbjUJMKtxF_9-11" value="&lt;div&gt;Provincia&lt;/div&gt;&lt;div&gt;Completed&lt;br&gt;&lt;/div&gt;" style="rhombus;whiteSpace=wrap;html=1;" parent="WIyWlLk6GJQsqaUBKTNV-1" vertex="1">
          <mxGeometry x="-15" y="605" width="85" height="85" as="geometry" />
        </mxCell>
        <mxCell id="lAvZeCCtpbjUJMKtxF_9-14" value="" style="endArrow=classic;html=1;rounded=0;exitX=1;exitY=0.5;exitDx=0;exitDy=0;entryX=0;entryY=0.5;entryDx=0;entryDy=0;" parent="WIyWlLk6GJQsqaUBKTNV-1" source="lAvZeCCtpbjUJMKtxF_9-4" target="lAvZeCCtpbjUJMKtxF_9-5" edge="1">
          <mxGeometry width="50" height="50" relative="1" as="geometry">
            <mxPoint x="140" y="810" as="sourcePoint" />
            <mxPoint x="190" y="810" as="targetPoint" />
          </mxGeometry>
        </mxCell>
        <mxCell id="lAvZeCCtpbjUJMKtxF_9-15" value="Yes" style="edgeLabel;html=1;align=center;verticalAlign=middle;resizable=0;points=[];" parent="lAvZeCCtpbjUJMKtxF_9-14" vertex="1" connectable="0">
          <mxGeometry x="-0.3333" y="-1" relative="1" as="geometry">
            <mxPoint y="-11" as="offset" />
          </mxGeometry>
        </mxCell>
        <mxCell id="lAvZeCCtpbjUJMKtxF_9-16" value="" style="endArrow=classic;html=1;rounded=0;exitX=0.5;exitY=1;exitDx=0;exitDy=0;entryX=0;entryY=0.5;entryDx=0;entryDy=0;" parent="WIyWlLk6GJQsqaUBKTNV-1" source="lAvZeCCtpbjUJMKtxF_9-1" target="lAvZeCCtpbjUJMKtxF_9-5" edge="1">
          <mxGeometry width="50" height="50" relative="1" as="geometry">
            <mxPoint x="80" y="850" as="sourcePoint" />
            <mxPoint x="180" y="800" as="targetPoint" />
            <Array as="points">
              <mxPoint x="28" y="800" />
              <mxPoint x="180" y="800" />
              <mxPoint x="180" y="750" />
            </Array>
          </mxGeometry>
        </mxCell>
        <mxCell id="lAvZeCCtpbjUJMKtxF_9-17" value="&lt;div&gt;Province&lt;/div&gt;&lt;div&gt;Completed&lt;br&gt;&lt;/div&gt;" style="rhombus;whiteSpace=wrap;html=1;" parent="WIyWlLk6GJQsqaUBKTNV-1" vertex="1">
          <mxGeometry x="499" y="565" width="80" height="80" as="geometry" />
        </mxCell>
        <mxCell id="lAvZeCCtpbjUJMKtxF_9-19" value="Doubles" style="rhombus;whiteSpace=wrap;html=1;" parent="WIyWlLk6GJQsqaUBKTNV-1" vertex="1">
          <mxGeometry x="700" y="370" width="70" height="40" as="geometry" />
        </mxCell>
        <mxCell id="lAvZeCCtpbjUJMKtxF_9-23" value="Throw Dice" style="shape=parallelogram;perimeter=parallelogramPerimeter;whiteSpace=wrap;html=1;fixedSize=1;" parent="WIyWlLk6GJQsqaUBKTNV-1" vertex="1">
          <mxGeometry x="690" y="330" width="90" height="20" as="geometry" />
        </mxCell>
        <mxCell id="lAvZeCCtpbjUJMKtxF_9-24" value="" style="endArrow=classic;html=1;rounded=0;exitX=0;exitY=0.5;exitDx=0;exitDy=0;entryX=0;entryY=0.5;entryDx=0;entryDy=0;" parent="WIyWlLk6GJQsqaUBKTNV-1" source="lAvZeCCtpbjUJMKtxF_9-19" target="-Jj-i-QA5d7zHLFxkBgY-16" edge="1">
          <mxGeometry width="50" height="50" relative="1" as="geometry">
            <mxPoint x="640" y="440" as="sourcePoint" />
            <mxPoint x="690" y="390" as="targetPoint" />
            <Array as="points">
              <mxPoint x="650" y="390" />
              <mxPoint x="650" y="440" />
            </Array>
          </mxGeometry>
        </mxCell>
        <mxCell id="lAvZeCCtpbjUJMKtxF_9-26" value="No" style="edgeLabel;html=1;align=center;verticalAlign=middle;resizable=0;points=[];" parent="lAvZeCCtpbjUJMKtxF_9-24" vertex="1" connectable="0">
          <mxGeometry x="-0.7959" y="1" relative="1" as="geometry">
            <mxPoint y="-11" as="offset" />
          </mxGeometry>
        </mxCell>
        <mxCell id="lAvZeCCtpbjUJMKtxF_9-27" value="&lt;div&gt;I have a &lt;br&gt;&lt;/div&gt;&lt;div&gt;Card&lt;br&gt;&lt;/div&gt;" style="rhombus;whiteSpace=wrap;html=1;" parent="WIyWlLk6GJQsqaUBKTNV-1" vertex="1">
          <mxGeometry x="802.5" y="460" width="65" height="60" as="geometry" />
        </mxCell>
      </root>
    </mxGraphModel>
  </diagram>
</mxfile>
